%
M48
M72
T01C0.0236
T02C0.0315
T03C0.0320
T04C0.0354
T05C0.0400
%
T01
X17600Y13600
X20600Y16600
X19100Y19100
X21100Y20100
X22100Y20100
X16600Y20850
X13350Y18350
X22100Y12850
T02
X23431Y12557
X23431Y13344
X23431Y14131
X23431Y14919
X23431Y15706
X23431Y16494
X23431Y17281
X23431Y18069
X23431Y18856
X23431Y19643
X14769Y19643
X14769Y18856
X14769Y18069
X14769Y17281
X14769Y16494
X14769Y15706
X14769Y14919
X14769Y14131
X14769Y13344
X14769Y12557
T03
X18600Y16100
X17850Y16600
X18600Y17100
T04
X13350Y12350
X13350Y13350
X13350Y14350
T05
X15350Y11850
X21100Y11850
M30
