G75*
%MOIN*%
%OFA0B0*%
%FSLAX24Y24*%
%IPPOS*%
%LPD*%
%AMOC8*
5,1,8,0,0,1.08239X$1,22.5*
%
%ADD10C,0.0560*%
%ADD11R,0.0690X0.0770*%
%ADD12OC8,0.0560*%
%ADD13R,0.0198X0.0611*%
%ADD14R,0.0769X0.0808*%
%ADD15R,0.0690X0.0966*%
%ADD16C,0.0720*%
%ADD17R,0.0770X0.0690*%
%ADD18C,0.0760*%
%ADD19C,0.0436*%
D10*
X014769Y012557D03*
X014769Y013344D03*
X014769Y014131D03*
X014769Y014919D03*
X014769Y015706D03*
X014769Y016494D03*
X014769Y017281D03*
X014769Y018069D03*
X014769Y018856D03*
X014769Y019643D03*
X023431Y019643D03*
X023431Y018856D03*
X023431Y018069D03*
X023431Y017281D03*
X023431Y016494D03*
X023431Y015706D03*
X023431Y014919D03*
X023431Y014131D03*
X023431Y013344D03*
X023431Y012557D03*
D11*
G36*
X023201Y021397D02*
X023689Y020909D01*
X023145Y020365D01*
X022657Y020853D01*
X023201Y021397D01*
G37*
G36*
X022409Y022189D02*
X022897Y021701D01*
X022353Y021157D01*
X021865Y021645D01*
X022409Y022189D01*
G37*
G36*
X015303Y021701D02*
X015791Y022189D01*
X016335Y021645D01*
X015847Y021157D01*
X015303Y021701D01*
G37*
G36*
X014511Y020909D02*
X014999Y021397D01*
X015543Y020853D01*
X015055Y020365D01*
X014511Y020909D01*
G37*
D12*
X018600Y017100D03*
X017850Y016600D03*
X018600Y016100D03*
D13*
X018588Y020057D03*
X018844Y020057D03*
X019100Y020057D03*
X019356Y020057D03*
X019612Y020057D03*
D14*
X020675Y021100D03*
X017525Y021100D03*
D15*
X013350Y019090D03*
X013350Y016610D03*
D16*
X013350Y012350D03*
X013350Y013350D03*
X013350Y014350D03*
D17*
X013350Y020540D03*
X013350Y021660D03*
D18*
X015350Y011850D03*
X021100Y011850D03*
D19*
X022100Y012850D03*
X017600Y013600D03*
X020600Y016600D03*
X019100Y019100D03*
X021100Y020100D03*
X022100Y020100D03*
X016600Y020850D03*
X013350Y018350D03*
M02*
