G75*
%MOIN*%
%OFA0B0*%
%FSLAX24Y24*%
%IPPOS*%
%LPD*%
%AMOC8*
5,1,8,0,0,1.08239X$1,22.5*
%
%ADD10C,0.0560*%
%ADD11R,0.0770X0.0690*%
%ADD12R,0.0277X0.0532*%
%ADD13R,0.0690X0.0770*%
%ADD14OC8,0.0560*%
%ADD15R,0.0270X0.0670*%
%ADD16C,0.0720*%
%ADD17C,0.0760*%
%ADD18C,0.0436*%
D10*
X014769Y012557D03*
X014769Y013344D03*
X014769Y014131D03*
X014769Y014919D03*
X014769Y015706D03*
X014769Y016494D03*
X014769Y017281D03*
X014769Y018069D03*
X014769Y018856D03*
X014769Y019643D03*
X023431Y019643D03*
X023431Y018856D03*
X023431Y018069D03*
X023431Y017281D03*
X023431Y016494D03*
X023431Y015706D03*
X023431Y014919D03*
X023431Y014131D03*
X023431Y013344D03*
X023431Y012557D03*
D11*
X019850Y015540D03*
X019850Y016660D03*
X018350Y019040D03*
X017350Y019040D03*
X016350Y019040D03*
X016350Y020160D03*
X017350Y020160D03*
X018350Y020160D03*
X016850Y015910D03*
X016850Y014790D03*
X016850Y013910D03*
X016850Y012790D03*
D12*
X016474Y016838D03*
X015726Y016838D03*
X015726Y017862D03*
X016100Y017862D03*
X016474Y017862D03*
D13*
X021040Y019350D03*
X022160Y019350D03*
X021410Y012850D03*
X020290Y012850D03*
X019410Y011850D03*
X018290Y011850D03*
D14*
X018600Y016100D03*
X017850Y016600D03*
X018600Y017100D03*
D15*
X020850Y017310D03*
X021350Y017310D03*
X021850Y017310D03*
X022350Y017310D03*
X022350Y014390D03*
X021850Y014390D03*
X021350Y014390D03*
X020850Y014390D03*
D16*
X013350Y012350D03*
X013350Y013350D03*
X013350Y014350D03*
D17*
X015350Y011850D03*
X021100Y011850D03*
D18*
X022100Y012850D03*
X017600Y013600D03*
X020600Y016600D03*
X019100Y019100D03*
X021100Y020100D03*
X022100Y020100D03*
X016600Y020850D03*
X013350Y018350D03*
M02*
