G75*
%MOIN*%
%OFA0B0*%
%FSLAX24Y24*%
%IPPOS*%
%LPD*%
%AMOC8*
5,1,8,0,0,1.08239X$1,22.5*
%
%ADD10C,0.0080*%
%ADD11C,0.0060*%
%ADD12C,0.0030*%
D10*
X015994Y017031D02*
X016206Y017031D01*
X015540Y017181D02*
X015540Y017519D01*
X016660Y017519D02*
X016660Y017181D01*
D11*
X018700Y015713D02*
X018700Y015555D01*
X019250Y015775D02*
X019250Y017425D01*
X018700Y017487D02*
X018700Y017645D01*
X018700Y016713D02*
X018700Y016487D01*
X019250Y015775D02*
X019199Y015738D01*
X019146Y015703D01*
X019090Y015671D01*
X019033Y015643D01*
X018974Y015619D01*
X018914Y015598D01*
X018853Y015581D01*
X018791Y015567D01*
X018728Y015558D01*
X018665Y015552D01*
X018601Y015550D01*
X018537Y015552D01*
X018474Y015558D01*
X018411Y015567D01*
X018349Y015580D01*
X018288Y015598D01*
X018228Y015618D01*
X018169Y015643D01*
X018112Y015670D01*
X018056Y015702D01*
X018003Y015736D01*
X017952Y015774D01*
X017903Y015815D01*
X017857Y015859D01*
X017813Y015905D01*
X017772Y015954D01*
X017735Y016005D01*
X017700Y016059D01*
X017669Y016114D01*
X017641Y016171D01*
X017617Y016230D01*
X017597Y016290D01*
X017597Y016910D02*
X017617Y016970D01*
X017641Y017029D01*
X017669Y017086D01*
X017700Y017141D01*
X017735Y017195D01*
X017772Y017246D01*
X017813Y017295D01*
X017857Y017341D01*
X017903Y017385D01*
X017952Y017426D01*
X018003Y017464D01*
X018056Y017498D01*
X018112Y017530D01*
X018169Y017557D01*
X018228Y017582D01*
X018288Y017602D01*
X018349Y017620D01*
X018411Y017633D01*
X018474Y017642D01*
X018537Y017648D01*
X018601Y017650D01*
X018665Y017648D01*
X018728Y017642D01*
X018791Y017633D01*
X018853Y017619D01*
X018914Y017602D01*
X018974Y017581D01*
X019033Y017557D01*
X019090Y017529D01*
X019146Y017497D01*
X019199Y017462D01*
X019250Y017425D01*
X020550Y016910D02*
X020550Y015970D01*
X020550Y015730D01*
X020550Y014790D01*
X020650Y014790D01*
X021050Y014790D02*
X021150Y014790D01*
X021550Y014790D02*
X021650Y014790D01*
X022050Y014790D02*
X022150Y014790D01*
X022550Y014790D02*
X022650Y014790D01*
X022650Y016910D01*
X022550Y016910D01*
X022150Y016910D02*
X022050Y016910D01*
X021650Y016910D02*
X021550Y016910D01*
X021150Y016910D02*
X021050Y016910D01*
X020650Y016910D02*
X020550Y016910D01*
X020550Y015970D02*
X020571Y015968D01*
X020591Y015963D01*
X020610Y015954D01*
X020627Y015942D01*
X020642Y015927D01*
X020654Y015910D01*
X020663Y015891D01*
X020668Y015871D01*
X020670Y015850D01*
X020668Y015829D01*
X020663Y015809D01*
X020654Y015790D01*
X020642Y015773D01*
X020627Y015758D01*
X020610Y015746D01*
X020591Y015737D01*
X020571Y015732D01*
X020550Y015730D01*
X020571Y015732D01*
X020591Y015737D01*
X020610Y015746D01*
X020627Y015758D01*
X020642Y015773D01*
X020654Y015790D01*
X020663Y015809D01*
X020668Y015829D01*
X020670Y015850D01*
X020668Y015871D01*
X020663Y015891D01*
X020654Y015910D01*
X020642Y015927D01*
X020627Y015942D01*
X020610Y015954D01*
X020591Y015963D01*
X020571Y015968D01*
X020550Y015970D01*
D12*
X020597Y014389D02*
X020283Y014075D01*
X020597Y014389D01*
X020597Y014232D02*
X020283Y014232D01*
X020597Y014232D01*
X020597Y014075D02*
X020283Y014389D01*
X020597Y014075D01*
X020440Y014075D02*
X020440Y014389D01*
X020440Y014075D01*
M02*
